<?xml version="1.0" encoding="UTF-8"?>
<svg width="1024px" height="1024px" viewBox="0 0 1024 1024" version="1.1" xmlns="http://www.w3.org/2000/svg" xmlns:xlink="http://www.w3.org/1999/xlink">
    <!-- Generator: Sketch 58 (84663) - https://sketch.com -->
    <title>Logo</title>
    <desc>Created with Sketch.</desc>
    <g id="Logo" stroke="none" stroke-width="1" fill="none" fill-rule="evenodd">
        <path d="M512,589.017595 C615.654616,589.017595 699.683284,673.046264 699.683284,776.70088 C699.683284,880.355496 615.654616,964.384164 512,964.384164 C408.345384,964.384164 324.316716,880.355496 324.316716,776.70088 C324.316716,673.046264 408.345384,589.017595 512,589.017595 Z M836.316716,350.284457 C939.971331,350.284457 1024,434.313126 1024,537.967742 C1024,641.622358 939.971331,725.651026 836.316716,725.651026 C816.405129,725.651026 797.217754,722.550311 779.211105,716.805396 C762.814006,638.87774 714.263609,573.367314 648.653703,535.868501 L648.633431,537.967742 C648.633431,434.313126 732.6621,350.284457 836.316716,350.284457 Z M187.683284,350.284457 C291.3379,350.284457 375.366569,434.313126 375.366569,537.967742 C375.366569,541.098679 375.289904,544.211711 375.138348,547.305061 C320.836606,584.544271 280.616123,641.982796 264.496461,709.255483 C241.054098,719.792531 215.052854,725.651026 187.683284,725.651026 C84.0286687,725.651026 0,641.622358 0,537.967742 C0,434.313126 84.0286687,350.284457 187.683284,350.284457 Z M512,59 C615.654616,59 699.683284,143.028669 699.683284,246.683284 C699.683284,350.3379 615.654616,434.366569 512,434.366569 C408.345384,434.366569 324.316716,350.3379 324.316716,246.683284 C324.316716,143.028669 408.345384,59 512,59 Z" id="Combined-Shape" fill="#FFFFFF"></path>
    </g>
</svg>